<svg width="24" height="25" viewBox="0 0 24 25" fill="none" xmlns="http://www.w3.org/2000/svg">
<g id="ep:delete">
<path id="Vector" d="M3.75 6.5H2.25C2.05109 6.5 1.86032 6.42099 1.71967 6.28033C1.57902 6.13968 1.5 5.94892 1.5 5.75C1.5 5.55109 1.57902 5.36033 1.71967 5.21967C1.86032 5.07902 2.05109 5 2.25 5H8.25V2.7485C8.25 2.54959 8.32902 2.35883 8.46967 2.21817C8.61032 2.07752 8.80109 1.9985 9 1.9985H15C15.1989 1.9985 15.3897 2.07752 15.5303 2.21817C15.671 2.35883 15.75 2.54959 15.75 2.7485V5H21.75C21.9489 5 22.1397 5.07902 22.2803 5.21967C22.421 5.36033 22.5 5.55109 22.5 5.75C22.5 5.94892 22.421 6.13968 22.2803 6.28033C22.1397 6.42099 21.9489 6.5 21.75 6.5H20.25V22.25C20.25 22.4489 20.171 22.6397 20.0303 22.7803C19.8897 22.921 19.6989 23 19.5 23H4.5C4.30109 23 4.11032 22.921 3.96967 22.7803C3.82902 22.6397 3.75 22.4489 3.75 22.25V6.5ZM14.25 5V3.5H9.75V5H14.25ZM5.25 21.5H18.75V6.5H5.25V21.5ZM9.75 18.5C9.55109 18.5 9.36032 18.421 9.21967 18.2803C9.07902 18.1397 9 17.9489 9 17.75V10.25C9 10.0511 9.07902 9.86033 9.21967 9.71967C9.36032 9.57902 9.55109 9.5 9.75 9.5C9.94891 9.5 10.1397 9.57902 10.2803 9.71967C10.421 9.86033 10.5 10.0511 10.5 10.25V17.75C10.5 17.9489 10.421 18.1397 10.2803 18.2803C10.1397 18.421 9.94891 18.5 9.75 18.5ZM14.25 18.5C14.0511 18.5 13.8603 18.421 13.7197 18.2803C13.579 18.1397 13.5 17.9489 13.5 17.75V10.25C13.5 10.0511 13.579 9.86033 13.7197 9.71967C13.8603 9.57902 14.0511 9.5 14.25 9.5C14.4489 9.5 14.6397 9.57902 14.7803 9.71967C14.921 9.86033 15 10.0511 15 10.25V17.75C15 17.9489 14.921 18.1397 14.7803 18.2803C14.6397 18.421 14.4489 18.5 14.25 18.5Z" fill="#D12B2F"/>
</g>
</svg>
