<svg width="32" height="21" viewBox="0 0 32 21" fill="none" xmlns="http://www.w3.org/2000/svg">
<g id="Logo-Mastercard">
<g clip-path="url(#clip0_0_440)">
<rect y="0.653839" width="32" height="19.6923" rx="4" fill="white"/>
<g id="Icons">
<path id="Vector" d="M11.6737 2.76767H20.326V18.3061H11.6737V2.76767Z" fill="#FF5F00"/>
<path id="Vector_2" d="M12.2232 10.5369C12.2232 7.37989 13.7064 4.57962 15.9862 2.76767C14.3108 1.44995 12.1958 0.653839 9.88853 0.653839C4.42225 0.653839 0 5.07372 0 10.5369C0 16 4.42225 20.42 9.8884 20.42C12.1957 20.42 14.3106 19.6239 15.9862 18.3061C13.7064 16.5217 12.2232 13.694 12.2232 10.5369Z" fill="#EB001B"/>
<path id="Vector_3" d="M32 10.5369C32 16 27.5777 20.42 22.1116 20.42C19.8043 20.42 17.6893 19.6239 16.0138 18.3061C18.3211 16.4943 19.7769 13.694 19.7769 10.5369C19.7769 7.37989 18.2935 4.57962 16.0138 2.76767C17.6892 1.44995 19.8043 0.653839 22.1116 0.653839C27.5777 0.653839 32.0001 5.10123 32.0001 10.5369H32Z" fill="#F79E1B"/>
</g>
</g>
</g>
<defs>
<clipPath id="clip0_0_440">
<rect y="0.653839" width="32" height="19.6923" rx="4" fill="white"/>
</clipPath>
</defs>
</svg>
