<svg width="52" height="17" viewBox="0 0 52 17" fill="none" xmlns="http://www.w3.org/2000/svg">
<path id="Vector" d="M26.8931 5.47222C26.8635 7.8114 28.9778 9.11668 30.5705 9.89282C32.2069 10.6891 32.7565 11.1997 32.75 11.9119C32.7379 13.0017 31.4448 13.4827 30.2348 13.5013C28.1237 13.534 26.8962 12.9314 25.9204 12.4756L25.1599 16.0341C26.1389 16.4852 27.9518 16.8787 29.8317 16.896C34.2446 16.896 37.1317 14.7177 37.1473 11.3403C37.1646 7.05395 31.2185 6.8167 31.2591 4.90082C31.2731 4.31989 31.8275 3.69995 33.0421 3.54233C33.6434 3.4627 35.3031 3.40176 37.1849 4.26829L37.9234 0.825325C36.9115 0.456856 35.6109 0.104029 33.9915 0.104029C29.838 0.104029 26.9167 2.312 26.8931 5.47222ZM45.0202 0.400591C44.2144 0.400591 43.5354 0.870621 43.2323 1.59192L36.9287 16.6431H41.3384L42.2159 14.218H47.6044L48.1134 16.6431H52L48.6084 0.400591H45.0202ZM45.6371 4.78829L46.9097 10.8875H43.4245L45.6371 4.78829ZM21.5467 0.400793L18.0708 16.6429H22.2729L25.7471 0.400387L21.5467 0.400793ZM15.3305 0.400387L10.9568 11.4559L9.18755 2.05586C8.97995 1.00651 8.16014 0.400591 7.24973 0.400591H0.100141L0 0.872246C1.46778 1.19075 3.13544 1.70445 4.14578 2.25411C4.76409 2.58987 4.94041 2.88339 5.14353 3.68126L8.49448 16.6431H12.935L19.7429 0.400591L15.3305 0.400387Z" fill="url(#paint0_linear_0_453)"/>
<defs>
<linearGradient id="paint0_linear_0_453" x1="23.9065" y1="17.2328" x2="24.3925" y2="-0.0127533" gradientUnits="userSpaceOnUse">
<stop stop-color="#222357"/>
<stop offset="1" stop-color="#254AA5"/>
</linearGradient>
</defs>
</svg>
